<?xml version="1.0" standalone="no"?>
<!DOCTYPE svg PUBLIC "-//W3C//DTD SVG 20010904//EN"
 "http://www.w3.org/TR/2001/REC-SVG-20010904/DTD/svg10.dtd">
<svg version="1.0" xmlns="http://www.w3.org/2000/svg"
 width="256.000000pt" height="256.000000pt" viewBox="0 0 256.000000 256.000000"
 preserveAspectRatio="xMidYMid meet">
<metadata>
Created by potrace 1.11, written by Peter Selinger 2001-2013
</metadata>
<g transform="translate(0.000000,256.000000) scale(0.100000,-0.100000)"
fill="#000000" stroke="none">
<path d="M1180 2339 c-232 -20 -456 -122 -631 -286 -97 -92 -161 -180 -224
-308 -147 -299 -145 -637 5 -940 316 -638 1162 -788 1681 -298 94 89 160 179
219 298 147 297 151 636 10 932 -192 404 -609 641 -1060 602z m298 -229 c322
-77 568 -333 637 -662 8 -38 15 -84 15 -103 l0 -33 -69 35 c-58 30 -79 36
-134 36 -35 -1 -87 -8 -115 -17 -68 -23 -144 -92 -179 -164 -38 -77 -39 -191
-3 -267 51 -105 168 -185 270 -185 22 0 40 -4 40 -9 0 -5 -36 -42 -79 -83
-166 -154 -353 -227 -579 -228 -230 0 -417 73 -586 231 -42 39 -76 75 -76 80
0 5 18 9 40 9 102 0 219 80 270 185 36 76 35 190 -3 267 -56 114 -164 181
-294 181 -53 0 -76 -6 -135 -36 l-71 -35 7 69 c26 281 229 556 501 680 155 70
373 90 543 49z m-768 -967 c43 -39 49 -87 18 -133 -45 -66 -131 -66 -176 0
-47 69 3 160 88 160 29 0 48 -7 70 -27z m1279 1 c75 -63 30 -184 -69 -184 -43
0 -75 21 -96 62 -35 67 18 148 96 148 27 0 48 -8 69 -26z"/>
<path d="M750 1600 l0 -110 210 0 210 0 0 110 0 110 -210 0 -210 0 0 -110z"/>
<path d="M1390 1600 l0 -110 210 0 210 0 0 110 0 110 -210 0 -210 0 0 -110z"/>
<path d="M1070 745 l0 -105 210 0 210 0 0 105 0 105 -210 0 -210 0 0 -105z"/>
</g>
</svg>
